<svg width="119" height="120" viewBox="0 0 119 120" fill="none" xmlns="http://www.w3.org/2000/svg">
<g filter="url(#filter0_d_201_76)">
<path d="M23.8658 49.5442C21.1777 46.1365 23.3094 41.1046 27.6233 40.6748C30.8228 40.3561 33.0608 37.3591 32.4681 34.1949C31.6696 29.9318 35.8906 26.4649 39.9078 28.0922C42.8885 29.2997 46.2622 27.6876 47.2044 24.6121C48.4737 20.4687 53.8225 19.3622 56.623 22.6716C58.7014 25.1276 62.4355 25.2735 64.6962 22.989C67.7437 19.9094 72.9936 21.4238 73.9382 25.6571C74.6389 28.7977 77.8777 30.6649 80.941 29.6941C85.0691 28.3859 89.0112 32.1748 87.8849 36.3601C87.049 39.4658 89.0499 42.629 92.2142 43.196C96.4783 43.9601 98.2098 49.1482 95.2709 52.33C93.0894 54.6918 93.3922 58.4238 95.9317 60.3997C99.3551 63.0634 98.4856 68.4605 94.4026 69.9111C91.3726 70.9876 89.9129 74.4333 91.2448 77.3649C93.0396 81.3153 89.7687 85.6911 85.4783 85.0741C82.2955 84.6165 79.4058 86.9906 79.2256 90.2036C78.9828 94.532 74.0551 96.888 70.5445 94.3455C67.9393 92.4588 64.2783 93.214 62.6292 95.9739C60.4068 99.693 54.9481 99.4838 53.0198 95.5998C51.5888 92.7175 47.9984 91.6803 45.2568 93.357C41.5614 95.6169 36.8272 92.8851 36.9212 88.5494C36.991 85.3331 34.2923 82.7431 31.0853 82.9513C26.7639 83.2317 23.8426 78.6081 25.9357 74.8149C27.4892 71.9995 26.303 68.4481 23.3656 67.1386C19.4067 65.3737 18.9636 59.9231 22.579 57.5373C25.2624 55.7664 25.8595 52.0716 23.8658 49.5442Z" fill="url(#paint0_linear_201_76)"/>
</g>
<path d="M47.6498 57.8478L43.3054 44.8517H45.2176L49.2093 56.8453H48.2439L52.3841 44.8517H54.0921L58.1395 56.8453H57.2112L61.2586 44.8517H63.0223L58.6779 57.8478H56.7285L52.9411 46.7268H53.4423L49.6363 57.8478H47.6498ZM66.6116 50.4586H73.2954V52.0367H66.6116V50.4586ZM66.7787 56.2326H74.3536V57.8478H64.9221V44.8517H74.0937V46.4669H66.7787V56.2326ZM44.0223 60.8517H45.8788V73.8478H44.0223V60.8517ZM36.5588 73.8478H34.7022V60.8517H36.5588V73.8478ZM44.1893 68.0553H36.3731V66.44H44.1893V68.0553ZM47.4295 73.8478L53.3149 60.8517H55.1529L61.0569 73.8478H59.1075L53.8533 61.8914H54.596L49.3418 73.8478H47.4295ZM49.9359 70.5988L50.4372 69.1135H57.7522L58.2906 70.5988H49.9359ZM65.6856 73.8478L59.9673 60.8517H61.9724L67.2266 72.8452H66.0755L71.3667 60.8517H73.2233L67.5236 73.8478H65.6856ZM76.1988 66.4586H82.8825V68.0367H76.1988V66.4586ZM76.3659 72.2326H83.9408V73.8478H74.5093V60.8517H83.6809V62.4669H76.3659V72.2326Z" fill="white"/>
<defs>
<filter id="filter0_d_201_76" x="4.95062" y="15.3802" width="103.806" height="103.776" filterUnits="userSpaceOnUse" color-interpolation-filters="sRGB">
<feFlood flood-opacity="0" result="BackgroundImageFix"/>
<feColorMatrix in="SourceAlpha" type="matrix" values="0 0 0 0 0 0 0 0 0 0 0 0 0 0 0 0 0 0 127 0" result="hardAlpha"/>
<feOffset dx="-2.22979" dy="7.5813"/>
<feGaussianBlur stdDeviation="6.4664"/>
<feComposite in2="hardAlpha" operator="out"/>
<feColorMatrix type="matrix" values="0 0 0 0 0.0775104 0 0 0 0 0.241623 0 0 0 0 0.157958 0 0 0 0.46 0"/>
<feBlend mode="normal" in2="BackgroundImageFix" result="effect1_dropShadow_201_76"/>
<feBlend mode="normal" in="SourceGraphic" in2="effect1_dropShadow_201_76" result="shape"/>
</filter>
<linearGradient id="paint0_linear_201_76" x1="89.7084" y1="23.1372" x2="65.8733" y2="87.7892" gradientUnits="userSpaceOnUse">
<stop stop-color="#237249"/>
<stop offset="1" stop-color="#35C66B"/>
</linearGradient>
</defs>
</svg>
